<svg width="13" height="15" viewBox="0 0 14 15" fill="none" xmlns="http://www.w3.org/2000/svg">
<path d="M1.5 1C0.947715 1 0.5 1.44772 0.5 2V3C0.5 3.55228 0.947715 4 1.5 4H2V13C2 14.1046 2.89543 15 4 15H10C11.1046 15 12 14.1046 12 13V4H12.5C13.0523 4 13.5 3.55228 13.5 3V2C13.5 1.44772 13.0523 1 12.5 1H9C9 0.447715 8.55229 0 8 0H6C5.44772 0 5 0.447715 5 1H1.5ZM4.5 5C4.77614 5 5 5.22386 5 5.5V12.5C5 12.7761 4.77614 13 4.5 13C4.22386 13 4 12.7761 4 12.5L4 5.5C4 5.22386 4.22386 5 4.5 5ZM7 5C7.27614 5 7.5 5.22386 7.5 5.5V12.5C7.5 12.7761 7.27614 13 7 13C6.72386 13 6.5 12.7761 6.5 12.5V5.5C6.5 5.22386 6.72386 5 7 5ZM10 5.5V12.5C10 12.7761 9.77614 13 9.5 13C9.22386 13 9 12.7761 9 12.5V5.5C9 5.22386 9.22386 5 9.5 5C9.77614 5 10 5.22386 10 5.5Z" fill="#434C54"/>
</svg>
